<svg width="168" height="179" viewBox="0 0 168 179" fill="none" xmlns="http://www.w3.org/2000/svg">
<g clip-path="url(#clip0_166_573)">
<path d="M89.8002 0.000187092C139 0.100187 179.1 40.4002 179 89.6002C178.9 139 138.5 179.1 89.0002 178.9C39.8002 178.7 -0.0998124 138.4 0.00018756 89.1002C0.100188 39.9002 40.4002 -0.0998129 89.8002 0.000187092Z" fill="black"/>
<path d="M89.2977 170.6C44.5977 170.4 8.09769 133.8 8.29769 89.3C8.39769 44.6 44.9977 8.20001 89.5977 8.30001C134.298 8.40001 170.798 45.1 170.598 89.6C170.498 134.3 133.798 170.8 89.2977 170.6Z" fill="#FEFEFE"/>
<path d="M25.503 65C27.303 65.9 28.703 67 30.303 67.3C32.703 67.8 34.603 66.4 35.503 64.3C36.503 62 36.203 59.4 33.903 58.2C30.703 56.5 31.803 54.6 32.903 52.5C35.903 47.1 42.603 44.7 48.303 47C54.103 49.3 57.803 56.2 55.403 62.1C53.903 65.9 52.503 69.6 51.803 73.7C51.503 75.5 50.303 76.8 48.703 78.7C55.103 77.9 60.703 78.2 65.403 82.3C68.503 85 70.403 88.4 71.203 92.4C72.803 100.7 68.403 107.8 58.603 112.3C60.603 116.1 60.603 116.1 63.703 114.3C66.303 112.8 68.803 112.9 71.003 115C73.303 117.2 73.603 119.9 72.103 122.7C70.603 125.4 67.903 126.3 65.303 125.2C62.603 124.1 61.803 124.5 60.603 127.2C57.903 133.3 53.003 134.9 43.203 133.6C42.503 134.7 43.803 135.3 44.003 136.2C44.403 138.6 43.603 140.3 41.203 140.6C38.703 141 36.703 139.4 37.203 136.9C37.603 134.7 37.203 134.5 35.203 134C32.103 133.3 28.203 133 28.703 128C28.803 127 27.503 125.4 26.503 125.6C21.103 126.8 21.403 122 19.903 119.4C18.703 117.3 17.903 114.9 17.103 112.5C16.403 110.3 14.803 108.1 19.103 107.2C21.703 106.7 22.203 103.6 22.003 101C21.803 97.3 20.303 93.7 16.703 92.8C13.203 91.9 13.103 90.2 13.303 87.6C13.603 84.3 13.703 81 14.203 77.7C14.703 74.5 15.603 71.3 16.503 67.1C18.403 70.9 19.603 74.2 22.303 76.3C23.403 77.1 24.503 78.1 25.803 77.1C27.203 76.1 25.903 75 25.503 74C24.503 71.2 24.403 68.3 25.503 65Z" fill="black"/>
<path d="M93.4972 60.6C93.3972 59.1 93.8972 57.5 94.4972 56C96.4972 51.4 108.597 44.2 113.597 44.6C117.297 44.9 119.597 47.2 121.097 50.3C122.797 53.7 122.497 57.3 119.997 60C118.097 62.1 116.797 64.4 115.497 66.9C113.097 71.3 110.297 72 105.797 69.9C105.197 69.6 104.397 69.4 103.897 69.6C101.797 70.7 100.097 72.5 97.5972 69.9C95.1972 67.5 93.4972 64.3 93.4972 60.6Z" fill="black"/>
<path d="M93.8018 48.5C94.2018 54.5 86.8018 58.2 80.5018 59.8C75.8018 61 73.0018 58.6 71.2018 52.6C70.7018 51 69.9018 50.3 68.4018 49.6C65.4018 48.2 64.5018 45.5 65.7018 42.5C66.9018 39.6 69.5018 38.3 72.6018 39.6C74.4018 40.3 75.5018 39.9 76.9018 38.8C79.9018 36.3 83.7018 35.4 87.0018 37.6C90.9018 40.1 93.4018 43.8 93.8018 48.5Z" fill="black"/>
<path d="M84.7003 136.1C77.8003 136 73.4003 132.1 73.6003 126.2C73.8003 120 79.1003 115.1 85.4003 115.3C91.3003 115.5 96.4003 120.7 96.4003 126.6C96.3003 132.2 91.5003 136.2 84.7003 136.1Z" fill="#010101"/>
<path d="M147.097 56.2999C147.097 61.7999 142.797 66.2999 137.597 66.1999C132.397 66.0999 128.097 61.9999 127.897 56.7999C127.697 51.2999 131.897 46.7999 137.197 46.6999C142.597 46.5999 147.097 50.9999 147.097 56.2999Z" fill="#010101"/>
<path d="M123.198 25.4999C128.198 25.3999 133.898 29.8999 133.898 33.9999C133.898 37.0999 131.798 38.2999 128.998 38.3999C124.098 38.5999 118.198 34.0999 118.098 30.0999C117.898 26.5999 120.298 25.6999 123.198 25.4999Z" fill="#030303"/>
<path d="M65.7977 138C69.4977 138.4 71.4977 140.7 71.2977 144.2C71.1977 146.7 69.9977 149.2 66.8977 149.3C64.5977 149.4 59.2977 144.8 59.4977 143C59.7977 139.3 62.3977 138.2 65.7977 138Z" fill="#040404"/>
<path d="M77.5003 67.6001C80.0003 67.8001 82.4003 68.6001 82.5003 71.4001C82.6003 74.5001 80.3003 75.5001 77.6003 75.6001C75.1003 75.6001 72.8003 74.7001 72.6003 71.9001C72.3003 68.6001 75.1003 68.1001 77.5003 67.6001Z" fill="#060606"/>
<path d="M50.7997 35.8C50.6997 38.1 49.0997 39.6 46.7997 39.6C44.1997 39.6 42.5997 38 42.6997 35.1C42.7997 32.5 44.5997 31.2 46.9997 31.3C49.2997 31.4 50.7997 32.9 50.7997 35.8Z" fill="#090909"/>
<path d="M135.497 82.3001C135.297 84.6001 133.797 86.0001 131.397 86.0001C129.097 85.9001 127.297 84.5001 127.297 82.0001C127.297 79.3001 129.197 77.7001 131.697 77.8001C134.097 77.9001 135.497 79.5001 135.497 82.3001Z" fill="#080808"/>
<path d="M68.2969 162.5C70.6969 159.5 73.0969 158.4 76.1969 159.7C78.0969 160.5 79.8969 162.1 79.1969 164.1C78.5969 165.8 76.5969 164.2 75.2969 164C73.1969 163.8 70.9969 163.1 68.2969 162.5Z" fill="#151515"/>
<path d="M139.099 32.1001C140.499 33.1001 141.199 33.5001 141.699 34.1001C142.699 35.3001 144.499 35.9001 144.399 37.7001C144.399 38.0001 143.299 38.5001 142.799 38.4001C140.799 38.2001 139.499 37.0001 139.099 35.0001C138.999 34.5001 139.099 33.8001 139.099 32.1001Z" fill="#353535"/>
<path d="M109.598 140C109.598 141.1 109.098 142 107.998 142C106.998 142 106.198 141.3 106.298 140.2C106.298 139.3 106.798 138.7 107.698 138.5C108.898 138.2 109.398 139 109.598 140Z" fill="#202020"/>
<path d="M41.8 82.2001C40.7 84.2001 40 85.4001 39.2 86.9001C44.3 86.7001 49 87.0001 49 93.8001C49 95.8001 50.3 94.6001 51 94.6001C53.8 94.9001 55.6 96.2001 56 99.1001C56.3 101.5 55.4 103.5 53.1 104.2C50.2 105.1 47.6 104.2 46.8 101.1C46.2 98.7001 45 99.6001 43.5 99.9001C38.3 100.8 35.3 98.3001 34.8 93.3001C34.4 89.1001 31.1 86.8001 28.5 84.0001C32.3 78.8001 37 84.1001 41.8 82.2001Z" fill="#FCFCFC"/>
<path d="M40.8031 109.3C42.7031 109.6 44.0031 110.7 43.8031 112.9C43.7031 114.8 42.4031 116 40.6031 116C38.5031 116.1 37.2031 114.6 37.2031 112.6C37.2031 110.7 38.5031 109.4 40.8031 109.3Z" fill="#EFEFEF"/>
<path d="M135.253 -11C175.918 -10.9173 209.082 22.4252 209 63.1221C208.917 103.982 175.511 137.165 134.58 136.999C93.9223 136.833 60.9175 103.5 61 62.7031C61.0826 22.0221 94.3981 -11.0825 135.253 -11Z" fill="#F2F2F0" stroke="black" stroke-width="8"/>
</g>
<defs>
<clipPath id="clip0_166_573">
<rect width="168" height="179" fill="white"/>
</clipPath>
</defs>
</svg>
