<svg width="179" height="179" viewBox="0 0 179 179" fill="none" xmlns="http://www.w3.org/2000/svg">
<g clip-path="url(#clip0_167_593)">
<path d="M89.8504 0.000187197C139.078 0.100243 179.2 40.4228 179.1 89.6503C179 139.078 138.578 179.2 89.05 179C39.8225 178.8 -0.0998683 138.478 0.000187665 89.15C0.100244 39.9225 40.4228 -0.0998688 89.8504 0.000187197Z" fill="black"/>
<path d="M89.3477 170.695C44.6227 170.495 8.10222 133.875 8.30234 89.35C8.40239 44.625 45.0229 8.2046 89.6478 8.30465C134.373 8.40471 170.893 45.1252 170.693 89.6501C170.593 134.375 133.873 170.896 89.3477 170.695Z" fill="#FEFEFE"/>
<path d="M25.5173 65.0364C27.3183 65.9369 28.7191 67.0375 30.32 67.3377C32.7213 67.838 34.6224 66.4372 35.5229 64.336C36.5234 62.0347 36.2233 59.4333 33.922 58.2326C30.7202 56.5316 31.8208 54.6306 32.9214 52.5294C35.9231 47.1264 42.6268 44.725 48.33 47.0263C54.1333 49.3276 57.8354 56.2315 55.434 62.1348C53.9332 65.9369 52.5324 69.639 51.832 73.7413C51.5318 75.5423 50.3312 76.843 48.7303 78.7441C55.1338 77.9436 60.737 78.2438 65.4396 82.3461C68.5413 85.0476 70.4424 88.4495 71.2428 92.4517C72.8437 100.756 68.4413 107.86 58.6358 112.363C60.6369 116.165 60.6369 116.165 63.7387 114.364C66.3401 112.863 68.8415 112.963 71.0427 115.064C73.344 117.266 73.6442 119.967 72.1434 122.769C70.6425 125.47 67.941 126.371 65.3396 125.27C62.638 124.169 61.8376 124.57 60.6369 127.271C57.9354 133.375 53.0327 134.976 43.2272 133.675C42.5268 134.775 43.8275 135.376 44.0276 136.276C44.4279 138.678 43.6274 140.379 41.2261 140.679C38.7247 141.079 36.7235 139.478 37.2238 136.977C37.624 134.775 37.2238 134.575 35.2227 134.075C32.121 133.375 28.2188 133.074 28.7191 128.072C28.8191 127.071 27.5184 125.47 26.5178 125.67C21.1148 126.871 21.415 122.068 19.9141 119.467C18.7135 117.366 17.913 114.964 17.1126 112.563C16.4122 110.362 14.8113 108.161 19.1137 107.26C21.7152 106.76 22.2154 103.658 22.0153 101.057C21.8152 97.3545 20.3144 93.7525 16.7124 92.8519C13.2104 91.9514 13.1103 90.2505 13.3105 87.649C13.6106 84.3472 13.7107 81.0453 14.211 77.7435C14.7112 74.5417 15.6117 71.3399 16.5122 67.1376C18.4133 70.9397 19.614 74.2415 22.3155 76.3427C23.4161 77.1432 24.5167 78.1437 25.8174 77.1432C27.2182 76.1426 25.9175 75.042 25.5173 74.0414C24.5167 71.2399 24.4167 68.3382 25.5173 65.0364Z" fill="black"/>
<path d="M93.5495 60.6339C93.4494 59.133 93.9497 57.5321 94.5501 56.0313C96.5512 51.4287 108.658 44.2247 113.661 44.6249C117.363 44.9251 119.664 47.2264 121.165 50.3281C122.866 53.73 122.566 57.332 120.064 60.0335C118.163 62.1347 116.863 64.436 115.562 66.9374C113.16 71.3399 110.359 72.0403 105.856 69.9391C105.256 69.6389 104.456 69.4388 103.955 69.6389C101.854 70.7395 100.153 72.5405 97.6518 69.9391C95.2504 67.5377 93.5495 64.3359 93.5495 60.6339Z" fill="black"/>
<path d="M93.8543 48.5272C94.2545 54.5305 86.8504 58.2326 80.5468 59.8335C75.8442 61.0342 73.0426 58.6328 71.2416 52.6295C70.7413 51.0286 69.9409 50.3282 68.4401 49.6278C65.4384 48.227 64.5379 45.5255 65.7385 42.5238C66.9392 39.6222 69.5407 38.3215 72.6424 39.6222C74.4434 40.3226 75.544 39.9224 76.9448 38.8218C79.9465 36.3204 83.7486 35.4198 87.0505 37.6211C90.9526 40.1225 93.4541 43.8246 93.8543 48.5272Z" fill="black"/>
<path d="M84.7477 136.176C77.8438 136.076 73.4414 132.174 73.6415 126.271C73.8416 120.067 79.1446 115.165 85.4481 115.365C91.3514 115.565 96.4542 120.768 96.4542 126.671C96.3542 132.274 91.5515 136.276 84.7477 136.176Z" fill="#010101"/>
<path d="M147.18 56.3314C147.18 61.8345 142.877 66.337 137.674 66.2369C132.472 66.1369 128.169 62.0346 127.969 56.8317C127.769 51.3286 131.971 46.8261 137.274 46.726C142.677 46.626 147.18 51.0284 147.18 56.3314Z" fill="#010101"/>
<path d="M123.267 25.5142C128.269 25.4141 133.973 29.9167 133.973 34.019C133.973 37.1207 131.871 38.3214 129.07 38.4214C124.167 38.6215 118.264 34.119 118.164 30.1168C117.964 26.6148 120.365 25.7143 123.267 25.5142Z" fill="#030303"/>
<path d="M65.8345 138.077C69.5366 138.477 71.5377 140.779 71.3376 144.281C71.2375 146.782 70.0369 149.283 66.9351 149.384C64.6338 149.484 59.3309 144.881 59.531 143.08C59.8312 139.378 62.4326 138.277 65.8345 138.077Z" fill="#040404"/>
<path d="M77.5437 67.6379C80.0451 67.838 82.4464 68.6385 82.5465 71.4401C82.6465 74.5418 80.3452 75.5423 77.6437 75.6424C75.1423 75.6424 72.841 74.7419 72.6409 71.9403C72.3408 68.6385 75.1423 68.1382 77.5437 67.6379Z" fill="#060606"/>
<path d="M50.8282 35.8201C50.7281 38.1214 49.1272 39.6222 46.8259 39.6222C44.2245 39.6222 42.6236 38.0213 42.7236 35.1197C42.8237 32.5182 44.6247 31.2175 47.026 31.3176C49.3273 31.4176 50.8282 32.9184 50.8282 35.8201Z" fill="#090909"/>
<path d="M135.573 82.3461C135.373 84.6474 133.872 86.0482 131.47 86.0482C129.169 85.9481 127.368 84.5474 127.368 82.046C127.368 79.3444 129.269 77.7436 131.771 77.8436C134.172 77.9437 135.573 79.5446 135.573 82.3461Z" fill="#080808"/>
<path d="M68.3351 162.591C70.7364 159.589 73.1378 158.489 76.2395 159.789C78.1406 160.59 79.9416 162.191 79.2412 164.192C78.6408 165.893 76.6397 164.292 75.339 164.092C73.2378 163.892 71.0366 163.191 68.3351 162.591Z" fill="#151515"/>
<path d="M139.177 32.1181C140.578 33.1186 141.278 33.5188 141.778 34.1192C142.779 35.3198 144.58 35.9202 144.48 37.7212C144.48 38.0214 143.379 38.5216 142.879 38.4216C140.878 38.2215 139.577 37.0208 139.177 35.0197C139.077 34.5194 139.177 33.819 139.177 32.1181Z" fill="#353535"/>
<path d="M109.659 140.078C109.659 141.179 109.159 142.079 108.058 142.079C107.057 142.079 106.257 141.379 106.357 140.278C106.357 139.378 106.857 138.778 107.758 138.577C108.958 138.277 109.459 139.078 109.659 140.078Z" fill="#202020"/>
<path d="M41.8234 82.2461C40.7228 84.2472 40.0224 85.4479 39.2219 86.9487C44.3248 86.7486 49.0274 87.0488 49.0274 93.8526C49.0274 95.8537 50.3281 94.653 51.0285 94.653C53.8301 94.9532 55.6311 96.2539 56.0313 99.1555C56.3315 101.557 55.431 103.558 53.1297 104.258C50.2281 105.159 47.6266 104.258 46.8262 101.157C46.2258 98.7553 45.0252 99.6558 43.5243 99.956C38.3214 100.856 35.3198 98.3551 34.8195 93.3523C34.4192 89.1499 31.1174 86.8487 28.5159 84.0471C32.3181 78.8442 37.0207 84.1471 41.8234 82.2461Z" fill="#FCFCFC"/>
<path d="M40.826 109.361C42.727 109.661 44.0277 110.762 43.8276 112.963C43.7276 114.864 42.4268 116.065 40.6258 116.065C38.5247 116.165 37.2239 114.664 37.2239 112.663C37.2239 110.762 38.5247 109.461 40.826 109.361Z" fill="#EFEFEF"/>
</g>
<defs>
<clipPath id="clip0_167_593">
<rect width="178.9" height="178.9" fill="white" transform="scale(1.00056)"/>
</clipPath>
</defs>
</svg>
