<svg width="626" height="76" viewBox="0 0 626 76" fill="none" xmlns="http://www.w3.org/2000/svg">
<path d="M625.997 74.5611C622.51 44.7414 601.349 11.0594 571.934 5.93012C569.984 5.59108 571.002 6.27249 571.002 7.17232C600.214 12.2657 621.051 45.5759 624.515 75.1893C624.569 75.6565 624.515 75.1893 625.997 74.5611Z" fill="#111111"/>
<path d="M585.191 0.670654C577.388 0.706589 572.506 1.17082 564.71 2.00036C563.398 2.43158 562.821 4.18926 563.217 5.52197C567.005 13.1739 569.005 16.6747 571.502 25.1768C572.439 25.5715 572.506 25.677 573.416 25.4376C571.817 16.8726 567.137 10.1779 564.71 2.00036C564.212 3.17527 563.714 4.34862 563.217 5.52197C570.246 3.20964 577.896 3.08613 585.191 3.05332C589.456 3.03145 588.738 0.65503 585.191 0.670654Z" fill="#111111"/>
<path d="M0.00332725 73.8905C3.48978 44.0708 24.6514 10.3888 54.0664 5.25954C56.0164 4.92051 54.9981 5.60191 54.9981 6.50174C25.7862 11.5951 4.94937 44.9053 1.48468 74.5187C1.431 74.9859 1.48468 74.5187 0.00332725 73.8905Z" fill="#111111"/>
<path d="M40.8169 7.67024e-05C48.6197 0.0360115 53.5016 0.500247 61.2982 1.32978C62.6098 1.761 63.1873 3.51868 62.7912 4.85139C59.003 12.5033 57.0025 16.0041 54.5058 24.5063C53.5688 24.901 53.5016 25.0064 52.5922 24.767C54.1911 16.202 58.8709 9.5073 61.2982 1.32978C61.7959 2.5047 62.2935 3.67804 62.7912 4.85139C55.7617 2.53906 48.1119 2.41556 40.8169 2.38275C36.5513 2.36087 37.2695 -0.0155471 40.8169 7.67024e-05Z" fill="#111111"/>
</svg>
